HIERARCHY
ROOT pelvis
{
  OFFSET 0 100 0
  CHANNELS 6 Xposition Yposition Zposition Zrotation Xrotation Yrotation
  JOINT pelvis_right_femur
  {
    OFFSET -10.78128 -3.44521 -0.5502486
    CHANNELS 3 Zrotation Xrotation Yrotation
    JOINT right_femur_tibia
    {
      OFFSET -0.8047443 -44.0398 -0.1307829
      CHANNELS 3 Zrotation Xrotation Yrotation
      JOINT right_tibia_foot
      {
        OFFSET 3.006224 -47.83518 -5
        CHANNELS 3 Zrotation Xrotation Yrotation
        End Site
        {
          OFFSET 0 -5 15
        }
      }
    }
  }
  JOINT pelvis_left_femur
  {
    OFFSET 10.78128 -3.44521 -0.5502486
    CHANNELS 3 Zrotation Xrotation Yrotation
    JOINT left_femur_tibia
    {
      OFFSET 0.8047443 -44.0398 -0.1307829
      CHANNELS 3 Zrotation Xrotation Yrotation
      JOINT left_tibia_foot
      {
        OFFSET -4.370144 -48.10324 -4.275266
        CHANNELS 3 Zrotation Xrotation Yrotation
        End Site
        {
          OFFSET 0 -5 15
        }
      }
    }
  }
  JOINT pelvis_spine1
  {
    OFFSET 0 6.468898 -3.129235
    CHANNELS 3 Zrotation Xrotation Yrotation
    JOINT spine1
    {
      OFFSET 0 23.15396 4.99043
      CHANNELS 3 Zrotation Xrotation Yrotation
      JOINT spine2
      {
        OFFSET 0 20.79997 -5.064912
        CHANNELS 3 Zrotation Xrotation Yrotation
        JOINT neck
        {
          OFFSET 0 14.38658 9.616178
          CHANNELS 3 Zrotation Xrotation Yrotation
          End Site
          {
            OFFSET 0 20 0
          }
        }
      }
      JOINT right_manubrium
      {
        OFFSET -5.722621 16.35077 3.967754
        CHANNELS 3 Zrotation Xrotation Yrotation
        JOINT right_clavicle
        {
          OFFSET -13.16364 1.694482 -4.693211
          CHANNELS 3 Zrotation Xrotation Yrotation
          JOINT right_humerus
          {
            OFFSET -28.5034 -0.3100689 -2.792744
            CHANNELS 3 Zrotation Xrotation Yrotation
            JOINT right_radius
            {
              OFFSET -25.15693 0.02248979 -1.271978
              CHANNELS 3 Zrotation Xrotation Yrotation
              End Site
              {
                OFFSET -15 0 0
              }
            }
          }
        }
      }
      JOINT left_manubrium
      {
        OFFSET 5.722621 16.35077 3.967754
        CHANNELS 3 Zrotation Xrotation Yrotation
        JOINT left_clavicle
        {
          OFFSET 13.16364 1.694482 -4.693211
          CHANNELS 3 Zrotation Xrotation Yrotation
          JOINT left_humerus
          {
            OFFSET 29.39168 -1.063119 -2.237045
            CHANNELS 3 Zrotation Xrotation Yrotation
            JOINT left_radius
            {
              OFFSET 24.59957 -0.9528479 0.9047498
              CHANNELS 3 Zrotation Xrotation Yrotation
              End Site
              {
                OFFSET 15 -0 -0
              }
            }
          }
        }
      }
    }
  }
}
MOTION
Frames: 13
Frame Time: 0.0416666666667
25.34844 104.9238 229.3161 0.9460526 -5.615567 0.1491516 1.807574 9.812128 6.282317 8.171498e-10 31.25279 7.497648e-10 5.382791 -10.86805 -1.855998 -2.373022 -16.48884 -8.41052 -4.123515e-10 19.65578 -1.632693e-09 -6.717195 -11.16237 19.04002 -1.114461 -0.8910732 8.24451 -1.019721 8.988145 -3.182586 2.419021 21.04578 6.071555 1.861383 -17.60606 8.560059 2.144532 -20.9653 11.03314 80.64311 22.41605 -7.319506 4.568482e-12 4.16036e-10 25.57858 -24.37027 13.31556 12.7721 5.225915 -15.0302 -1.411704 -94.0219 21.42192 25.4874 -2.73397e-10 -8.772705e-11 -9.782268 -2.294791 8.392657 14.60358
26.51258 105.2309 235.6532 1.19078 -5.983201 0.2511612 1.20587 8.867949 6.303908 8.415765e-10 38.12793 6.003603e-10 5.408434 -8.877788 -2.378201 -3.520771 -13.49262 -9.436227 -6.255333e-10 21.08629 -1.616993e-09 -6.460835 -11.16109 18.80893 -1.389563 -1.186715 7.898518 -1.184385 8.957863 -3.229856 2.459796 21.28362 6.147669 1.878115 -17.46584 8.701088 2.398843 -20.1766 10.86761 81.11834 22.47666 -8.11405 -2.3822e-11 3.88819e-10 24.26881 -23.95292 12.98293 12.23896 4.943659 -14.90776 -1.567578 -93.03878 21.95374 24.35034 -2.861403e-10 -6.448588e-11 -9.741058 -2.04308 8.63152 14.40665
27.64164 105.9462 241.7704 1.411504 -6.69106 0.6317841 0.6839583 5.882705 6.2082 8.940937e-10 45.82389 4.459017e-10 5.241629 -7.248231 -3.435809 -4.509656 -9.554004 -10.26345 -6.884161e-10 21.76321 -1.879212e-09 -6.010395 -11.85281 18.40666 -1.748409 -1.071019 7.217978 -1.265959 9.010519 -3.537198 2.459702 21.70682 6.237333 1.789464 -17.16379 8.900777 2.682438 -19.23227 10.77874 82.26062 22.80038 -9.320551 -2.426778e-11 3.609342e-10 22.71115 -23.48181 12.90463 11.67796 4.69217 -15.13579 -1.935061 -91.76145 22.64765 22.32693 -3.076632e-10 -4.747512e-11 -10.26244 -1.702738 8.865653 14.13965
28.69422 106.8965 247.4393 1.519975 -7.393354 1.268435 0.4142614 1.322512 5.964716 5.865999e-10 51.7793 2.242849e-10 4.626387 -6.709735 -4.724426 -5.101671 -5.131538 -10.85317 -5.315961e-10 21.4578 -1.354186e-09 -5.445567 -12.90142 17.76199 -2.058384 -0.650556 6.266088 -1.159384 9.019194 -4.077519 2.400078 22.13893 6.258599 1.58427 -16.77616 9.060202 2.951242 -18.21592 10.71074 83.45729 23.42486 -10.71084 -1.169848e-11 2.013036e-10 20.98875 -22.54078 13.00119 10.98892 4.496786 -15.63189 -2.365289 -90.03455 23.43717 19.68103 -2.372067e-10 3.311995e-12 -11.25306 -1.238269 9.182136 13.7029
29.65218 107.8723 252.7116 1.471831 -7.778032 2.090987 0.4800601 -4.191672 5.514765 1.252185e-10 54.43742 7.521824e-11 3.733005 -6.771193 -5.961794 -5.281614 -0.5461419 -11.17002 -2.930202e-10 20.31144 -5.486969e-10 -5.101144 -14.24011 16.85414 -2.197678 -0.1285923 5.208563 -0.8904285 8.90899 -4.736721 2.345152 22.47985 6.232474 1.33586 -16.48042 9.21353 3.063236 -17.24765 10.61094 84.79179 24.00332 -12.228 4.124929e-12 1.300241e-11 19.30851 -21.41935 13.19417 10.31633 4.494624 -16.30755 -2.73478 -88.3738 24.03897 16.90148 -1.33929e-10 6.191391e-11 -12.58809 -0.6919785 9.552805 13.11594
30.52003 108.593 257.7374 1.389531 -7.800327 3.007999 0.7284383 -9.617876 4.938438 -7.199821e-11 52.90738 4.973791e-11 2.897316 -7.129982 -6.897504 -5.189322 3.392219 -11.23138 -8.796506e-11 18.09117 -3.456828e-10 -4.900755 -15.93916 16.16572 -2.25853 0.3756671 4.276696 -0.5514661 8.676543 -5.350153 2.33466 22.69317 6.201961 1.156598 -16.27701 9.337575 2.942293 -16.4327 10.46594 85.92911 24.36209 -13.58668 3.478101e-11 -5.209893e-11 17.8417 -20.57194 13.32191 9.806865 4.82502 -17.05985 -2.970764 -86.94724 24.31094 14.15709 -8.0284e-11 7.73843e-11 -14.21276 -0.1200578 9.901864 12.36271
31.27415 108.8601 262.5838 1.298025 -7.514506 3.904907 1.113188 -14.79701 4.375791 -3.939324e-10 47.68976 1.878235e-11 2.090235 -7.729206 -7.505191 -4.980842 6.888143 -11.25836 1.841658e-10 15.64905 3.319643e-10 -4.769313 -17.7601 15.7748 -2.267301 0.8001249 3.488936 -0.1427934 8.351851 -5.891678 2.356674 22.77435 6.172829 1.079278 -16.15941 9.403427 2.712155 -15.66218 10.28908 86.61389 24.6209 -14.86432 5.571958e-11 -1.410614e-10 16.33715 -19.75378 13.27912 9.279886 5.42548 -17.83762 -3.066468 -85.53031 24.36496 11.37757 2.111151e-11 9.213435e-11 -16.11346 0.5060983 10.27165 11.41112
31.92838 108.6398 267.6237 1.236669 -6.921113 4.706414 1.426537 -18.9001 3.660218 -2.092191e-10 39.97427 5.495045e-11 1.535621 -8.176755 -7.891366 -4.770481 10.0038 -11.05038 1.634215e-10 13.66781 5.628118e-11 -4.998717 -19.46833 15.4468 -2.282855 0.930061 2.91545 0.2350082 7.870452 -6.348094 2.455326 22.86618 6.130029 1.084881 -16.08733 9.445664 2.30721 -14.85694 10.02177 87.51961 24.68223 -16.19793 8.492338e-11 -5.651907e-11 14.79381 -19.44286 13.20602 8.938422 6.253663 -18.62431 -2.936866 -84.53225 24.13885 8.583389 3.394002e-11 6.115302e-11 -18.22277 1.144388 10.58863 10.36915
32.44022 107.8988 272.6939 1.263927 -6.370055 5.350937 1.68207 -22.31928 3.054925 -3.946178e-10 31.55083 -5.191578e-11 0.8449794 -9.015476 -8.070004 -4.658079 12.62206 -11.01673 3.283052e-10 12.50675 8.258571e-10 -4.911361 -20.88647 15.5093 -2.366876 0.9862676 2.489275 0.6114456 7.450185 -6.733459 2.518983 22.97853 6.079787 1.170058 -16.01756 9.380301 1.991831 -14.06785 9.810512 87.97799 24.92211 -17.49573 9.105639e-11 -1.063557e-10 13.06106 -18.92655 12.91263 8.419125 7.081632 -19.4361 -2.785876 -83.33614 23.92005 5.733342 1.518153e-10 5.749255e-11 -20.47618 1.929361 11.03085 9.129976
32.81172 106.8028 277.845 1.262283 -5.827578 5.819841 1.869476 -24.71028 2.431889 -5.265055e-10 24.16051 -2.089547e-10 -0.006232748 -9.918422 -8.142742 -4.574405 14.84778 -10.99933 4.117223e-10 12.49708 1.479182e-09 -4.868466 -21.6768 15.44642 -2.418227 0.8860873 2.14612 0.9276565 7.027529 -7.038995 2.57032 23.13702 5.978 1.247738 -15.97026 9.258524 1.714709 -13.2848 9.599134 88.37864 25.19776 -18.68024 9.334684e-11 -1.473274e-10 11.30397 -18.2984 12.52805 7.847916 7.732953 -20.14307 -2.591577 -82.2213 23.71939 3.18645 2.574649e-10 5.382112e-11 -22.4243 2.793724 11.55356 7.868496
33.07069 105.6331 283.1984 1.151109 -5.409281 6.147768 2.068745 -25.95344 1.945041 -4.35252e-10 19.57092 -3.074768e-10 -1.023151 -10.67183 -8.317061 -4.460098 16.87778 -11.00118 2.651407e-10 14.0164 1.477749e-09 -5.08241 -21.59311 15.04949 -2.36461 0.6362374 1.806497 1.164678 6.628778 -7.27988 2.635522 23.34746 5.79053 1.245807 -15.93596 9.136611 1.519626 -12.51782 9.38061 88.97609 25.44568 -19.69714 1.012445e-10 -1.21967e-10 9.689871 -17.50467 12.20396 7.258645 8.027395 -20.60393 -2.384669 -81.43687 23.65989 1.309129 2.971408e-10 3.942411e-11 -23.54741 3.563879 12.09597 6.854611
33.29566 104.7422 288.978 0.9263713 -5.221849 6.404602 2.323151 -25.85131 1.771234 2.339063e-10 19.173 -1.270732e-10 -1.931962 -10.58429 -8.654305 -4.347163 18.69907 -11.03983 -2.314883e-10 17.01991 -1.103669e-10 -5.680153 -20.69049 14.45726 -2.194739 0.2591139 1.472647 1.265392 6.322466 -7.406134 2.76635 23.60295 5.563343 1.182594 -15.94717 9.105547 1.422329 -11.83414 9.166151 89.97195 25.48539 -20.42033 1.385879e-10 9.789298e-11 8.458171 -16.84528 12.03142 6.809774 7.92285 -20.66968 -2.198515 -81.41636 23.80154 0.5148503 1.731631e-10 -1.721444e-11 -23.36793 4.010655 12.54003 6.375426
33.51275 104.3499 295.0655 0.6563186 -5.366364 6.591407 2.804144 -24.58242 2.128699 8.02598e-10 21.50316 1.83994e-11 -2.885921 -10.03832 -8.962496 -4.190401 19.6882 -11.27274 -5.981266e-10 21.61344 -1.574072e-09 -6.211099 -19.05032 14.14888 -1.914756 -0.06430604 1.238367 1.296572 6.26825 -7.37398 2.907728 23.78228 5.317056 1.130481 -16.01533 9.070376 1.493299 -11.38655 9.056982 90.58428 25.45936 -20.67295 1.611902e-10 2.847026e-10 7.625764 -16.0204 11.84354 6.350802 7.472655 -20.38799 -2.118419 -81.81498 24.10691 0.8991496 5.638025e-11 -7.303382e-11 -21.98244 4.179249 12.93646 6.295478
